<?xml version="1.0" encoding="UTF-8"?> <svg xmlns="http://www.w3.org/2000/svg" xmlns:xlink="http://www.w3.org/1999/xlink" version="1.1" id="Layer_1" x="0px" y="0px" width="420px" height="420px" viewBox="-11 0 420 420" xml:space="preserve"> <path fill="#65C179" d="M71.192,365.476l47.229,47.226c2.348,2.352,6.152,2.352,8.496,0l47.233-47.226 c2.347-2.352,2.347-6.154,0-8.5l-47.233-47.233c-2.344-2.344-6.148-2.344-8.493,0l-47.232,47.233 C68.845,359.321,68.845,363.124,71.192,365.476z"></path> <path fill="#65C179" d="M147.521,289.143l47.234,47.233c2.344,2.35,6.148,2.35,8.489,0l47.239-47.233 c2.345-2.344,2.345-6.149,0-8.492l-47.239-47.234c-2.341-2.343-6.146-2.343-8.489,0l-47.234,47.234 C145.176,282.993,145.176,286.799,147.521,289.143z"></path> <path fill="#65C179" d="M223.853,212.815l47.227,47.233c2.351,2.343,6.155,2.343,8.499,0l47.233-47.233 c2.344-2.344,2.344-6.149,0-8.497l-47.233-47.229c-2.344-2.348-6.148-2.348-8.499,0l-47.227,47.229 C221.502,206.666,221.502,210.472,223.853,212.815z"></path> <path fill="#65C179" d="M72.624,214.246l47.229,47.231c2.348,2.35,6.152,2.35,8.499,0l47.23-47.231c2.347-2.348,2.347-6.148,0-8.494 l-47.23-47.233c-2.347-2.346-6.151-2.346-8.499,0.002l-47.229,47.231C70.276,208.098,70.276,211.898,72.624,214.246z"></path> <path fill="#65C179" d="M148.954,137.917l47.229,47.233c2.348,2.348,6.152,2.348,8.502,0l47.228-47.233 c2.35-2.344,2.35-6.149,0-8.492l-47.228-47.233c-2.35-2.344-6.154-2.344-8.502,0l-47.229,47.233 C146.606,131.768,146.606,135.573,148.954,137.917z"></path> <path fill="#65C179" d="M74.055,63.021l47.234,47.231c2.343,2.346,6.148,2.346,8.492,0l47.233-47.231 c2.348-2.347,2.348-6.146,0-8.494l-47.233-47.23c-2.344-2.348-6.149-2.348-8.492,0l-47.234,47.23 C71.708,56.874,71.708,60.674,74.055,63.021z"></path> </svg> 